<?xml version="1.0" standalone="no"?><!-- Generator: Gravit.io --><svg xmlns="http://www.w3.org/2000/svg" xmlns:xlink="http://www.w3.org/1999/xlink" style="isolation:isolate" width="820" height="200"><path d=" M 102.26849999999999 64.16299999999998 C 102.26849999999999 59.10299999999998 102.1745 58.18099999999998 96.14649999999999 57.31099999999998 L 96.14649999999999 56.616999999999976 L 111.98149999999998 56.616999999999976 L 111.98149999999998 57.31099999999998 C 106.45749999999998 58.040999999999976 106.31649999999998 59.424999999999976 106.31649999999998 64.16299999999998 L 106.31649999999998 80.63799999999998 C 106.36649999999997 89.56799999999998 105.30649999999997 91.54799999999997 95.32049999999998 95.82799999999997 L 94.95349999999998 95.04399999999997 C 101.71749999999997 91.86599999999997 102.26849999999997 86.89699999999996 102.26849999999997 78.61799999999997 L 102.26849999999997 64.16299999999998 M 119.68249999999999 74.79299999999998 C 118.90249999999999 77.09999999999998 116.87249999999999 81.88699999999997 116.87249999999999 84.09299999999998 C 116.87249999999999 86.90299999999998 120.04749999999999 86.90299999999998 122.11949999999999 87.22099999999998 L 122.11949999999999 87.91099999999997 L 109.50949999999999 87.91099999999997 L 109.50949999999999 87.22099999999998 C 113.60749999999999 86.11599999999997 114.0165 85.19799999999998 115.44549999999998 81.60299999999998 L 120.64149999999998 68.02899999999998 L 123.41149999999998 60.52899999999998 C 123.81849999999997 59.32899999999998 124.42149999999998 58.225999999999985 123.91349999999997 57.35599999999998 C 125.15849999999998 56.84599999999998 126.30349999999997 56.02299999999998 127.27349999999997 54.86999999999998 L 137.39849999999998 81.83499999999998 C 138.63449999999997 85.19799999999998 139.42549999999997 86.52899999999998 143.1015 87.22099999999998 L 143.1015 87.91099999999997 L 129.5715 87.91099999999997 L 129.5715 87.22099999999998 C 131.1855 86.85599999999998 133.11849999999998 86.34399999999998 133.11849999999998 84.28099999999998 C 133.11849999999998 82.34099999999998 131.36649999999997 78.01599999999998 130.1735 74.79299999999998 L 119.68149999999999 74.79299999999998 L 119.68249999999999 74.79299999999998 Z  M 124.78849999999998 60.71299999999998 L 120.46149999999999 72.67499999999998 L 129.5715 72.67499999999998 L 124.78849999999998 60.71299999999998 Z  M 165.3765 81.19499999999998 L 173.7065 62.87499999999998 C 174.8605 60.34799999999998 175.5015 58.04099999999998 174.4865 57.354999999999976 L 174.5865 56.614999999999974 L 184.6995 56.614999999999974 L 184.6995 57.306999999999974 C 181.7615 57.906999999999975 179.9665 59.010999999999974 180.1475 62.23199999999997 L 181.16150000000002 78.98599999999998 C 181.66850000000002 85.37899999999998 181.66850000000002 86.39599999999997 186.59150000000002 87.22199999999998 L 186.59150000000002 87.91199999999998 L 171.45550000000003 87.91199999999998 L 171.45550000000003 87.22199999999998 C 174.99850000000004 86.67199999999998 177.25150000000002 86.25399999999998 177.01850000000002 82.20699999999998 L 175.7785 62.09699999999998 L 175.6845 62.09699999999998 L 163.95450000000002 87.91199999999998 L 163.44850000000002 87.91199999999998 L 152.54250000000002 63.15499999999997 L 152.45250000000001 63.15499999999997 C 151.7125 70.19499999999998 151.34650000000002 75.30499999999998 151.0225 82.43199999999997 C 150.9325 84.22699999999998 150.97650000000002 86.30199999999998 156.5465 87.22199999999998 L 156.5465 87.91199999999998 L 143.7125 87.91199999999998 L 143.7125 87.22199999999998 C 147.8025 86.53199999999998 148.2165 84.55199999999998 148.8625 80.82599999999998 L 150.5625 67.89599999999999 L 151.1645 61.63399999999998 C 151.4395 58.59699999999998 148.8145 57.53799999999998 146.1025 57.30799999999998 L 146.1025 56.61799999999998 L 156.0385 56.61799999999998 L 156.0865 57.12299999999998 C 155.0745 58.182999999999986 156.3115 60.945999999999984 156.6425 61.67899999999998 L 165.3785 81.19499999999998 M 188.4825 87.22099999999998 C 194.01049999999998 86.48599999999998 194.05249999999998 85.10399999999997 194.1875 80.36699999999998 L 194.1875 64.16299999999998 C 194.0535 59.42499999999998 194.0115 58.04099999999998 188.4835 57.31099999999998 L 188.4835 56.616999999999976 L 213.1965 56.616999999999976 L 212.6445 63.70199999999998 L 211.9545 63.70199999999998 C 211.6325 57.769999999999975 207.3485 57.71899999999998 202.7025 57.71899999999998 L 198.24249999999998 57.71899999999998 L 198.24249999999998 70.83499999999998 L 203.02249999999998 70.83499999999998 C 206.47849999999997 70.83499999999998 209.1025 70.55999999999997 209.6085 66.60499999999998 L 210.2985 66.60499999999998 L 210.2985 76.86499999999998 L 209.6085 76.86499999999998 C 209.0065 72.81799999999998 206.4785 72.76499999999999 203.0215 72.76499999999999 L 198.2415 72.76499999999999 L 198.2415 80.31499999999998 C 198.2415 83.02699999999999 197.5965 86.80299999999998 205.1415 86.80299999999998 C 210.9445 86.80299999999998 213.7945 84.59799999999998 214.94150000000002 78.79499999999999 L 215.63150000000002 78.79499999999999 C 215.5885 82.29499999999999 214.9935 85.14799999999998 214.07350000000002 87.90799999999999 L 188.48350000000002 87.90799999999999 L 188.48350000000002 87.21799999999999 M 236.7165 64.71699999999998 L 235.9795 64.71699999999998 C 235.2425 60.98999999999998 234.0455 57.39699999999998 229.4915 57.39699999999998 C 226.5415 57.39699999999998 224.1055 59.424999999999976 224.1055 62.46099999999998 C 224.1055 70.42299999999997 238.6005 70.14699999999998 238.6005 79.44599999999997 C 238.6005 85.37899999999996 232.7065 88.46599999999997 227.41850000000002 88.46599999999997 C 224.60850000000002 88.46599999999997 221.66250000000002 87.63999999999997 219.3205 86.11599999999997 L 217.9865 78.29299999999998 L 218.8135 78.29299999999998 C 219.95850000000002 82.71499999999997 223.0465 87.08499999999998 228.1085 87.08499999999998 C 231.51049999999998 87.08499999999998 234.1885 85.05999999999997 234.1885 81.46999999999998 C 234.1885 73.27699999999999 220.1055 74.01599999999999 220.1055 64.80799999999999 C 220.1055 59.42499999999998 225.44150000000002 56.021999999999984 230.3655 56.021999999999984 C 232.7055 56.021999999999984 235.0555 56.707999999999984 237.0855 57.81199999999998 L 236.7155 64.71699999999998 M 277.4525 66.09899999999999 L 276.75849999999997 66.09899999999999 C 275.88149999999996 60.89299999999998 272.84549999999996 57.17299999999998 267.3255 57.17299999999998 C 258.8995 57.17299999999998 254.1555 64.07099999999998 254.1555 71.98899999999998 C 254.1555 81.05899999999997 261.1095 87.35599999999998 267.7855 87.35599999999998 C 273.8095 87.35599999999998 276.2035 82.94299999999998 278.2755 77.97599999999998 L 278.9255 78.25099999999999 C 278.3655 81.06099999999999 277.4955 83.821 276.3875 86.487 C 273.4425 87.91199999999999 270.27049999999997 88.467 266.9995 88.467 C 257.3755 88.467 248.82150000000001 82.944 248.82150000000001 72.542 C 248.82150000000001 64.352 255.21450000000002 56.067 267.3695 56.067 C 270.8645 56.067 274.4115 56.757 277.4515 58.551 L 277.4515 66.101 M 315.0065 72.26499999999999 C 315.0065 82.16199999999999 307.8315 88.46199999999999 298.16650000000004 88.46199999999999 C 288.45650000000006 88.46199999999999 281.31950000000006 82.16199999999999 281.31950000000006 72.222 C 281.31950000000006 62.413999999999994 288.49950000000007 56.065 298.1215000000001 56.065 C 309.90150000000006 56.065 315.0075000000001 64.073 315.0075000000001 72.265 M 286.6575000000001 71.111 C 286.6575000000001 78.245 290.43750000000006 87.35600000000001 298.7175000000001 87.35600000000001 C 306.30750000000006 87.35600000000001 309.6735000000001 79.62800000000001 309.6735000000001 73.05300000000001 C 309.5335000000001 64.89900000000002 304.7965000000001 57.171000000000014 297.7485000000001 57.171000000000014 C 289.8325000000001 57.171000000000014 286.6585000000001 64.89900000000002 286.6585000000001 71.11100000000002 M 351.9695 72.26499999999999 C 351.9695 82.16199999999999 344.7915 88.46199999999999 335.12649999999996 88.46199999999999 C 325.41249999999997 88.46199999999999 318.28349999999995 82.16199999999999 318.28349999999995 72.222 C 318.28349999999995 62.413999999999994 325.46349999999995 56.065 335.08349999999996 56.065 C 346.8665 56.065 351.96849999999995 64.073 351.96849999999995 72.265 M 323.62149999999997 71.111 C 323.62149999999997 78.245 327.39349999999996 87.35600000000001 335.67749999999995 87.35600000000001 C 343.2775 87.35600000000001 346.63149999999996 79.62800000000001 346.63149999999996 73.05300000000001 C 346.4915 64.89900000000002 341.75149999999996 57.171000000000014 334.70849999999996 57.171000000000014 C 326.80049999999994 57.171000000000014 323.6235 64.89900000000002 323.6235 71.11100000000002 M 362.5715 80.36699999999998 C 362.7095 85.10699999999997 362.7515 86.48699999999998 368.68850000000003 87.22099999999998 L 368.68850000000003 87.91099999999997 L 352.8115 87.91099999999997 L 352.8115 87.22099999999998 C 358.33950000000004 86.48599999999998 358.3775 85.10699999999997 358.51550000000003 80.36699999999998 L 358.51550000000003 64.16299999999998 C 358.37550000000005 59.42499999999998 358.3385 58.04099999999998 352.81050000000005 57.31099999999998 L 352.81050000000005 56.61599999999998 L 367.44050000000004 56.61599999999998 L 367.44050000000004 57.311999999999976 C 362.75050000000005 58.04199999999997 362.7085 59.42599999999997 362.57050000000004 64.16399999999997 L 362.57050000000004 80.36799999999997 L 362.5715 80.36699999999998 Z  M 383.3715 56.616999999999976 L 383.3715 57.31099999999998 C 378.1265 57.860999999999976 374.6315 62.32299999999998 371.22150000000005 65.86799999999998 L 366.8955 70.47399999999998 L 376.2395 80.77599999999998 C 379.04650000000004 83.85899999999998 382.36350000000004 86.61599999999999 386.4535 87.76599999999998 L 386.21950000000004 88.46599999999998 C 378.2155 87.81899999999997 376.9295 87.59099999999998 372.59950000000003 82.85099999999998 L 363.20950000000005 72.63099999999999 L 370.6215 64.57799999999999 C 375.4515 59.14799999999999 374.53150000000005 57.627999999999986 371.4485 57.30999999999999 L 371.4485 56.61499999999999 L 383.36850000000004 56.61499999999999 M 132.0915 99.81199999999998 L 132.0915 100.50199999999998 C 127.9035 100.95799999999998 127.62349999999999 103.54199999999999 127.44149999999999 109.61599999999999 L 127.16649999999998 119.69099999999999 C 127.02949999999998 125.63699999999999 124.49649999999998 131.659 114.28049999999999 131.659 C 100.01549999999999 131.659 101.4905 121.34899999999999 101.4905 117.669 L 101.4905 107.36099999999999 C 101.3485 102.61699999999999 101.30449999999999 101.23899999999999 95.7805 100.50299999999999 L 95.7805 99.81299999999999 L 111.6585 99.81299999999999 L 111.6585 100.50299999999999 C 105.62650000000001 101.37699999999998 105.5365 102.29699999999998 105.5365 107.36099999999999 L 105.5365 116.79399999999998 C 105.5365 117.66799999999998 104.0635 129.546 116.6735 129.546 C 126.6155 129.546 125.65050000000001 120.06599999999997 125.65050000000001 114.44299999999998 L 125.65050000000001 109.61699999999999 C 125.65050000000001 103.77099999999999 125.19050000000001 101.10199999999999 118.7455 100.50399999999999 L 118.7455 99.814 L 132.09050000000002 99.814 M 164.11149999999998 123.87999999999998 L 163.8815 107.08399999999997 C 163.8415 102.70399999999998 162.6385 101.41799999999998 157.4415 100.50099999999998 L 157.4415 99.81099999999998 L 169.9975 99.81099999999998 L 169.9975 100.50099999999998 C 166.82750000000001 100.91299999999998 166.2315 102.66099999999997 165.8595 105.65299999999998 C 165.2155 110.71299999999998 165.4475 121.80699999999997 165.6765 131.83899999999997 L 165.0845 131.97899999999998 C 157.71949999999998 123.28299999999997 149.5245 115.22399999999998 141.7445 106.84599999999998 L 141.7445 115.31799999999997 C 141.7445 126.73299999999998 141.47449999999998 129.07799999999997 148.1445 130.41299999999995 L 148.1445 131.10699999999997 L 134.3915 131.10699999999997 L 134.3915 130.41299999999995 C 140.5995 129.77299999999997 140.3715 125.53299999999997 140.3715 115.08999999999997 L 140.3715 108.18399999999997 C 140.3715 103.58399999999997 139.6315 101.78699999999996 133.7895 100.50099999999998 L 133.7895 99.81099999999998 L 141.3825 99.81099999999998 L 164.11249999999998 123.87899999999998 M 181.7225 123.56099999999998 C 181.8555 128.301 181.9125 129.67899999999997 187.42249999999999 130.41499999999996 L 187.42249999999999 131.10899999999998 L 171.9665 131.10899999999998 L 171.9665 130.41499999999996 C 177.4865 129.67899999999997 177.5365 128.301 177.66649999999998 123.56099999999998 L 177.66649999999998 107.36099999999998 C 177.5365 102.61599999999997 177.48649999999998 101.23799999999997 171.9665 100.50099999999998 L 171.9665 99.81099999999998 L 187.42249999999999 99.81099999999998 L 187.42249999999999 100.50099999999998 C 181.9125 101.23799999999997 181.85549999999998 102.61599999999997 181.7225 107.36099999999998 L 181.7225 123.56099999999998 Z  M 222.9965 99.81199999999998 L 222.9965 100.50199999999998 C 218.6715 100.87199999999999 217.3415 104.50199999999998 214.4865 111.17799999999998 L 205.69150000000002 132.164 L 205.05450000000002 132.164 L 194.65650000000002 107.27199999999999 C 193.27450000000002 103.90599999999999 192.21450000000002 100.957 188.12050000000002 100.502 L 188.12050000000002 99.812 L 202.70250000000001 99.812 L 202.70250000000001 100.502 C 196.21550000000002 101.142 198.3325 104.827 199.52550000000002 107.725 L 206.88850000000002 125.49 L 212.32850000000002 112.47 C 216.28050000000002 103.032 217.0165 101.513 210.02050000000003 100.502 L 210.02050000000003 99.812 L 222.99650000000003 99.812 M 223.41649999999998 130.41499999999996 C 228.9425 129.67899999999997 228.98649999999998 128.301 229.1265 123.56099999999998 L 229.1265 107.36099999999998 C 228.9865 102.61599999999997 228.9425 101.23799999999997 223.41649999999998 100.50099999999998 L 223.41649999999998 99.81099999999998 L 248.12949999999998 99.81099999999998 L 247.5775 106.89399999999998 L 246.8895 106.89399999999998 C 246.5625 100.95699999999998 242.2835 100.91399999999997 237.6375 100.91399999999997 L 233.17749999999998 100.91399999999997 L 233.17749999999998 114.03199999999997 L 237.96349999999998 114.03199999999997 C 241.40949999999998 114.03199999999997 244.03349999999998 113.75699999999996 244.5435 109.79499999999997 L 245.2335 109.79499999999997 L 245.2335 120.06499999999997 L 244.5435 120.06499999999997 C 243.9435 116.01299999999998 241.4095 115.96999999999997 237.96349999999998 115.96999999999997 L 233.17749999999998 115.96999999999997 L 233.17749999999998 123.51299999999998 C 233.17749999999998 126.22599999999997 232.5315 129.998 240.0775 129.998 C 245.8775 129.998 248.73749999999998 127.79299999999998 249.8775 121.99299999999998 L 250.5715 121.99299999999998 C 250.52749999999997 125.48999999999998 249.9255 128.34499999999997 249.0075 131.10899999999998 L 223.4175 131.10899999999998 L 223.4175 130.41499999999996 M 258.0665 109.28799999999998 C 258.0665 102.24999999999999 257.8325 101.18999999999998 252.67849999999999 100.72999999999999 L 252.67849999999999 100.088 L 263.91249999999997 99.71799999999999 C 275.50649999999996 99.35199999999999 276.42549999999994 105.00999999999999 276.42549999999994 107.222 C 276.42549999999994 111.08399999999999 274.03349999999995 113.292 270.71849999999995 114.77199999999999 L 270.94649999999996 115.09199999999998 C 274.49649999999997 121.30199999999998 278.90849999999995 129.219 286.50649999999996 130.79 L 286.3665 131.475 C 281.48249999999996 131.242 277.89649999999995 131.385 275.2315 128.625 C 272.19649999999996 125.45 269.8015 121.399 268.8375 119.41499999999999 C 266.99249999999995 115.595 265.33349999999996 116.70299999999999 262.1135 116.148 L 262.1135 123.56099999999999 C 262.1135 128.624 262.20349999999996 129.541 268.5115 130.415 L 268.5115 131.10899999999998 L 252.35649999999998 131.10899999999998 L 252.35649999999998 130.415 C 257.88149999999996 129.67899999999997 257.9235 128.301 258.0665 123.56099999999999 L 258.0665 109.288 L 258.0665 109.28799999999998 Z  M 262.11249999999995 115.36799999999998 C 266.53249999999997 115.31999999999998 271.6875 113.29199999999999 271.6875 108.18599999999998 C 271.6875 102.80099999999997 266.9475 100.64099999999998 262.1135 100.68599999999998 L 262.1135 115.36899999999997 M 303.9215 107.91099999999997 L 303.1885 107.91099999999997 C 302.4525 104.18099999999997 301.2555 100.59099999999998 296.7005 100.59099999999998 C 293.7505 100.59099999999998 291.3205 102.61599999999999 291.3205 105.65399999999998 C 291.3185 113.61399999999998 305.80649999999997 113.33899999999998 305.80649999999997 122.63799999999998 C 305.80649999999997 128.57199999999997 299.9165 131.65799999999996 294.6285 131.65799999999996 C 291.8185 131.65799999999996 288.8735 130.832 286.52349999999996 129.30399999999997 L 285.19149999999996 121.48899999999998 L 286.01849999999996 121.48899999999998 C 287.17249999999996 125.90599999999998 290.25149999999996 130.27599999999998 295.3185 130.27599999999998 C 298.72349999999994 130.27599999999998 301.38849999999996 128.25599999999997 301.38849999999996 124.66899999999998 C 301.38849999999996 116.47199999999998 287.31149999999997 117.20899999999999 287.31149999999997 108.00099999999998 C 287.31149999999997 102.61499999999998 292.64549999999997 99.21299999999998 297.56649999999996 99.21299999999998 C 299.9165 99.21299999999998 302.2625 99.90099999999998 304.2915 101.00799999999998 L 303.9215 107.90799999999999 M 317.37649999999996 123.56099999999998 C 317.51649999999995 128.301 317.56649999999996 129.67899999999997 323.08649999999994 130.41499999999996 L 323.08649999999994 131.10899999999998 L 307.62249999999995 131.10899999999998 L 307.62249999999995 130.41499999999996 C 313.14849999999996 129.67899999999997 313.19749999999993 128.301 313.3324999999999 123.56099999999998 L 313.33449999999993 107.36099999999998 C 313.19749999999993 102.61599999999997 313.14949999999993 101.23799999999997 307.62249999999995 100.50099999999998 L 307.62249999999995 99.81099999999998 L 323.08649999999994 99.81099999999998 L 323.08649999999994 100.50099999999998 C 317.56649999999996 101.23799999999997 317.51649999999995 102.61599999999997 317.37649999999996 107.36099999999998 L 317.37649999999996 123.56099999999998 Z  M 353.4805 98.38699999999999 L 353.84250000000003 98.38699999999999 L 354.4925 106.98999999999998 L 353.84250000000003 107.12799999999999 C 352.2325 101.41799999999999 349.70550000000003 101.18999999999998 344.41450000000003 101.18999999999998 L 341.64450000000005 101.18999999999998 L 341.64450000000005 122.45999999999998 C 341.64450000000005 128.15999999999997 341.9245 129.67999999999998 348.09450000000004 130.41499999999996 L 348.09450000000004 131.11299999999997 L 331.1575 131.11299999999997 L 331.1575 130.41499999999996 C 337.32050000000004 129.67899999999997 337.6005 128.159 337.6005 122.45899999999997 L 337.6005 101.18899999999998 L 334.8435 101.18899999999998 C 329.5455 101.18899999999998 327.0135 101.41899999999998 325.4035 107.12899999999998 L 324.7635 106.98899999999998 L 325.4035 98.38899999999998 L 325.7735 98.38699999999999 L 326.2335 98.79999999999998 C 327.38349999999997 99.85999999999999 327.57349999999997 99.81199999999998 329.0835 99.81199999999998 L 350.17150000000004 99.81199999999998 C 351.6865 99.81199999999998 351.86750000000006 99.85999999999999 353.02150000000006 98.79999999999998 L 353.48150000000004 98.38699999999999 M 384.8735 99.81199999999998 L 384.8735 100.50199999999998 C 380.8665 100.82399999999998 378.89349999999996 103.03199999999998 376.9615 106.34699999999998 L 371.5285 117.11199999999998 L 371.5285 122.32199999999997 C 371.6225 127.60899999999998 371.71250000000003 129.49499999999998 377.6025 130.41499999999996 L 377.6025 131.10899999999998 L 361.40250000000003 131.10899999999998 L 361.40250000000003 130.41499999999996 C 367.2925 129.49499999999998 367.39050000000003 127.60899999999998 367.47650000000004 122.32099999999998 L 367.47650000000004 118.63499999999998 L 362.69250000000005 108.18499999999997 C 360.94250000000005 104.31999999999998 359.69750000000005 101.05299999999997 355.04750000000007 100.50199999999998 L 355.04750000000007 99.81199999999998 L 367.75750000000005 99.81199999999998 L 367.75750000000005 100.50199999999998 C 363.9775000000001 101.00999999999998 364.48750000000007 102.52399999999999 365.96450000000004 105.74999999999999 L 370.56450000000007 115.68599999999998 L 374.56450000000007 108.09599999999998 C 377.41850000000005 102.75899999999997 377.0495000000001 101.01099999999998 373.05250000000007 100.50299999999997 L 373.05250000000007 99.81299999999997 L 384.87450000000007 99.81299999999997 M 101.29149999999998 141.12499999999997 L 381.9615 141.12499999999997 L 381.9615 140.18699999999998 L 101.29149999999998 140.18699999999998 L 101.29149999999998 141.12699999999998 L 101.29149999999998 141.12499999999997 Z  M 106.03649999999999 150.65699999999998 L 108.81949999999999 150.65699999999998 L 116.3475 167.892 L 113.1755 167.892 L 111.4395 163.759 L 103.34949999999999 163.759 L 101.58949999999999 167.892 L 98.50949999999999 167.892 L 106.0375 150.658 L 106.03649999999999 150.65699999999998 Z  M 110.33649999999999 161.09699999999998 L 107.3795 154.254 L 104.44949999999999 161.09699999999998 L 110.33549999999998 161.09699999999998 M 118.8945 160.629 L 118.8945 150.785 L 121.9045 150.785 L 121.9045 160.505 C 121.9045 163.682 123.5345 165.39499999999998 126.2225 165.39499999999998 C 128.8875 165.39499999999998 130.5255 163.78099999999998 130.5255 160.629 L 130.5255 150.785 L 133.5285 150.785 L 133.5285 160.482 C 133.5285 165.592 130.64249999999998 168.16 126.1685 168.16 C 121.7285 168.16 118.89349999999999 165.593 118.89349999999999 160.63 M 137.0005 165.39499999999998 L 138.8125 163.25099999999998 C 140.4455 164.65499999999997 142.0825 165.468 144.2125 165.468 C 146.0625 165.468 147.2375 164.61399999999998 147.2375 163.31199999999998 L 147.2375 163.26999999999998 C 147.2375 162.04999999999998 146.5575 161.384 143.3775 160.65599999999998 C 139.7375 159.77599999999998 137.6875 158.69899999999998 137.6875 155.54599999999996 L 137.6875 155.49799999999996 C 137.6875 152.56599999999997 140.1275 150.53799999999995 143.5305 150.53799999999995 C 146.01749999999998 150.53799999999995 147.9955 151.29799999999994 149.7355 152.69199999999995 L 148.1205 154.96199999999996 C 146.5805 153.81199999999995 145.04049999999998 153.20199999999997 143.47549999999998 153.20199999999997 C 141.7155 153.20199999999997 140.6915 154.10599999999997 140.6915 155.23199999999997 L 140.6915 155.27199999999996 C 140.6915 156.59599999999998 141.4715 157.18499999999997 144.7465 157.96599999999995 C 148.3595 158.84999999999994 150.2465 160.14299999999994 150.2465 162.97599999999994 L 150.2465 163.02599999999995 C 150.2465 166.22599999999994 147.7265 168.12999999999997 144.13649999999998 168.12999999999997 C 141.52149999999997 168.12999999999997 139.05249999999998 167.22599999999997 137.0005 165.39599999999996 M 158.1165 153.56499999999997 L 152.6865 153.56499999999997 L 152.6865 150.78499999999997 L 166.5725 150.78499999999997 L 166.5725 153.56499999999997 L 161.1465 153.56499999999997 L 161.1465 167.89199999999997 L 158.1165 167.89199999999997 L 158.1165 153.56499999999997 Z  M 170.23649999999998 150.78499999999997 L 177.86049999999997 150.78499999999997 C 180.01049999999998 150.78499999999997 181.70049999999998 151.42299999999997 182.79649999999998 152.48899999999998 C 183.7025 153.426 184.2145 154.694 184.2145 156.17899999999997 L 184.2145 156.22899999999998 C 184.2145 159.03699999999998 182.52949999999998 160.731 180.1315 161.415 L 184.7595 167.892 L 181.2065 167.892 L 177.00650000000002 161.928 L 173.2365 161.928 L 173.2365 167.892 L 170.2365 167.892 L 170.2365 150.78499999999997 L 170.23649999999998 150.78499999999997 Z  M 177.63949999999997 159.26499999999996 C 179.78949999999998 159.26499999999996 181.15949999999998 158.13499999999996 181.15949999999998 156.39999999999995 L 181.15949999999998 156.34999999999994 C 181.15949999999998 154.51699999999994 179.83649999999997 153.51699999999994 177.6195 153.51699999999994 L 173.23749999999998 153.51699999999994 L 173.23749999999998 159.26699999999994 L 177.64049999999997 159.26699999999994 M 194.4535 150.65699999999998 L 197.2335 150.65699999999998 L 204.7655 167.892 L 201.5885 167.892 L 199.85150000000002 163.759 L 191.76450000000003 163.759 L 190.00850000000003 167.892 L 186.92550000000003 167.892 L 194.45250000000001 150.658 L 194.4535 150.65699999999998 Z  M 198.7505 161.09699999999998 L 195.79749999999999 154.254 L 192.8645 161.09699999999998 L 198.7515 161.09699999999998 M 208.1865 150.78499999999997 L 211.1965 150.78499999999997 L 211.1965 165.15299999999996 L 220.1865 165.15299999999996 L 220.1865 167.89299999999997 L 208.1865 167.89299999999997 L 208.1865 150.78499999999997 Z  M 223.9765 167.89199999999997 L 226.9825 167.89199999999997 L 226.9825 150.78499999999997 L 223.97549999999998 150.78499999999997 L 223.97549999999998 167.89199999999997 L 223.9765 167.89199999999997 Z  M 238.10049999999998 150.65699999999998 L 240.88549999999998 150.65699999999998 L 248.41049999999998 167.892 L 245.2385 167.892 L 243.5015 163.759 L 235.41549999999998 163.759 L 233.6555 167.892 L 230.57549999999998 167.892 L 238.09949999999998 150.658 L 238.10049999999998 150.65699999999998 Z  M 242.4005 161.09699999999998 L 239.4445 154.254 L 236.5105 161.09699999999998 L 242.4005 161.09699999999998 Z  M 72.25949999999999 82.81999999999998 C 69.96949999999998 84.14699999999998 66.69749999999999 84.96599999999998 63.059499999999986 84.96599999999998 C 59.42149999999999 84.96599999999998 56.15349999999999 84.14799999999998 53.85949999999998 82.82599999999998 C 51.574499999999986 81.50599999999999 48.294499999999985 80.67999999999998 44.65949999999998 80.67999999999998 C 41.03149999999998 80.67999999999998 37.74749999999998 81.50599999999997 35.46949999999998 82.82499999999997 C 33.169499999999985 84.14699999999998 29.901499999999984 84.96499999999997 26.263499999999983 84.96499999999997 C 22.626499999999982 84.96499999999997 19.353499999999983 84.14699999999998 17.06749999999998 82.82499999999997 C 14.772499999999983 81.50499999999998 11.505499999999984 80.67899999999997 7.863499999999982 80.67899999999997 C 7.525499999999982 80.67899999999997 7.186499999999983 80.68899999999998 6.847499999999982 80.70599999999997 L 6.847499999999982 89.22199999999998 C 6.847499999999982 90.50999999999998 6.895499999999982 91.75399999999998 6.965499999999983 92.97199999999998 C 7.261499999999982 92.96199999999997 7.563499999999983 92.94699999999997 7.863499999999982 92.94699999999997 C 11.505499999999982 92.94699999999997 14.773499999999983 93.77499999999998 17.068499999999982 95.09699999999998 C 19.356499999999983 96.41699999999997 22.62849999999998 97.23999999999998 26.26549999999998 97.23999999999998 C 29.90349999999998 97.23999999999998 33.17149999999998 96.41699999999999 35.47049999999998 95.09699999999998 C 37.75049999999998 93.77499999999998 41.03349999999998 92.94699999999997 44.66249999999998 92.94699999999997 C 48.29649999999998 92.94699999999997 51.57649999999998 93.77499999999998 53.86049999999998 95.09699999999998 C 56.15549999999998 96.41699999999997 59.42349999999998 97.23999999999998 63.060499999999976 97.23999999999998 C 66.70049999999998 97.23999999999998 69.97049999999997 96.41699999999999 72.26049999999998 95.09399999999998 C 74.55449999999998 93.77399999999999 77.82549999999998 92.94799999999998 81.46049999999998 92.94799999999998 C 81.76649999999998 92.94799999999998 82.06049999999998 92.96399999999998 82.35649999999998 92.97299999999998 C 82.43149999999999 91.75599999999999 82.47649999999999 90.51299999999999 82.47649999999999 89.22299999999998 L 82.47649999999999 80.70899999999999 C 82.1445 80.69399999999999 81.80949999999999 80.68299999999999 81.45949999999999 80.68299999999999 C 77.8265 80.68299999999999 74.5555 81.50899999999999 72.26249999999999 82.823 M 63.05949999999999 109.50499999999998 C 59.42549999999999 109.50499999999998 56.14949999999999 108.68299999999998 53.8595 107.36299999999999 C 51.5745 106.04099999999998 48.2945 105.21299999999998 44.659499999999994 105.21299999999998 C 41.031499999999994 105.21299999999998 37.75149999999999 106.04099999999998 35.4695 107.36299999999999 C 33.1695 108.68299999999998 29.9015 109.50599999999999 26.263499999999997 109.50599999999999 C 22.626499999999997 109.50999999999999 19.353499999999997 108.68399999999998 17.067499999999995 107.36399999999999 C 15.027499999999996 106.18699999999998 12.217499999999998 105.40799999999999 9.067499999999997 105.25399999999999 C 10.677499999999998 110.648 13.064499999999997 115.184 15.879499999999997 119.04599999999999 C 16.297499999999996 119.231 16.699499999999997 119.41999999999999 17.069499999999998 119.633 C 19.355499999999996 120.95299999999999 22.627499999999998 121.783 26.264499999999998 121.779 C 29.902499999999996 121.779 33.1705 120.952 35.4695 119.633 C 37.7525 118.313 41.0325 117.479 44.6615 117.479 C 48.2955 117.479 51.5755 118.306 53.8595 119.633 C 56.1515 120.95299999999999 59.4265 121.779 63.0595 121.779 C 66.6995 121.779 69.9695 120.952 72.2595 119.633 C 72.63550000000001 119.42 73.0335 119.231 73.4495 119.041 C 76.2655 115.184 78.64750000000001 110.648 80.2615 105.255 C 77.1035 105.407 74.2965 106.185 72.2615 107.363 C 69.9695 108.68299999999999 66.6985 109.506 63.061499999999995 109.506 M 53.85849999999999 131.89999999999998 C 51.57549999999999 130.58499999999998 48.29449999999999 129.75799999999998 44.66149999999999 129.75799999999998 C 41.03149999999999 129.75799999999998 37.75149999999999 130.58499999999998 35.46949999999999 131.89999999999998 C 34.36149999999999 132.53699999999998 33.031499999999994 133.053 31.53949999999999 133.41999999999996 C 36.81949999999999 136.94799999999998 41.693499999999986 139.53799999999998 44.66049999999999 142.01999999999998 C 47.63449999999999 139.53799999999998 52.50749999999999 136.94799999999998 57.78349999999999 133.42 C 56.29549999999999 133.05399999999997 54.96349999999999 132.53799999999998 53.85849999999999 131.89999999999998 M 72.25949999999999 58.28499999999998 C 69.96949999999998 59.60199999999998 66.69749999999999 60.432999999999986 63.059499999999986 60.432999999999986 C 59.42149999999999 60.432999999999986 56.15349999999999 59.60299999999999 53.85949999999998 58.28299999999999 C 51.574499999999986 56.966999999999985 48.294499999999985 56.13899999999999 44.65949999999998 56.13899999999999 C 41.03149999999998 56.13899999999999 37.74749999999998 56.96699999999999 35.46949999999998 58.28399999999999 C 33.169499999999985 59.60099999999999 29.901499999999984 60.431999999999995 26.263499999999983 60.431999999999995 C 22.626499999999982 60.431999999999995 19.353499999999983 59.602 17.06749999999998 58.282 C 14.772499999999983 56.965999999999994 11.505499999999984 56.138 7.863499999999982 56.138 C 7.525499999999982 56.138 7.186499999999983 56.15 6.847499999999982 56.166 L 6.847499999999982 68.43599999999999 C 7.187499999999982 68.42599999999999 7.525499999999982 68.41299999999998 7.863499999999982 68.41299999999998 C 11.505499999999982 68.41299999999998 14.773499999999983 69.23299999999999 17.068499999999982 70.55299999999998 C 19.356499999999983 71.87699999999998 22.62849999999998 72.69899999999998 26.26549999999998 72.69899999999998 C 29.90349999999998 72.69899999999998 33.17149999999998 71.87699999999998 35.47049999999998 70.55299999999998 C 37.75049999999998 69.23299999999998 41.03349999999998 68.41299999999998 44.66249999999998 68.41299999999998 C 48.29649999999998 68.41299999999998 51.57649999999998 69.23299999999998 53.86049999999998 70.55299999999998 C 56.15549999999998 71.87699999999998 59.42349999999998 72.69899999999998 63.060499999999976 72.69899999999998 C 66.70049999999998 72.69899999999998 69.97049999999997 71.87699999999998 72.26049999999998 70.55299999999998 C 74.55449999999998 69.23299999999998 77.82549999999998 68.41299999999998 81.46049999999998 68.41299999999998 C 81.81049999999998 68.41299999999998 82.14449999999998 68.42499999999998 82.47549999999998 68.439 L 82.47549999999998 56.16699999999998 C 82.0793814512768 56.14632741541652 81.85615586914453 56.140175529294766 81.45950000000002 56.13899999999997 C 77.82649999999998 56.13899999999998 74.55549999999998 56.966999999999985 72.26249999999997 58.283999999999985 M 44.66149999999999 33.08499999999998 C 37.815499999999986 33.08499999999998 32.26649999999999 38.63699999999998 32.26649999999999 45.48499999999998 C 32.26649999999999 46.09999999999998 32.32649999999999 46.70499999999998 32.413499999999985 47.29899999999998 C 33.55149999999999 46.95399999999998 34.58349999999999 46.52099999999998 35.46849999999999 46.01399999999998 C 37.74849999999999 44.69799999999998 41.03149999999999 43.86899999999998 44.660499999999985 43.86899999999998 C 48.294499999999985 43.86899999999998 51.574499999999986 44.69899999999998 53.858499999999985 46.01199999999998 C 54.74349999999998 46.51999999999998 55.77549999999999 46.95199999999998 56.91449999999998 47.299999999999976 C 56.99949999999998 46.702999999999975 57.059499999999986 46.10299999999997 57.059499999999986 45.482999999999976 C 57.059499999999986 38.635999999999974 51.511499999999984 33.08299999999998 44.65949999999999 33.08299999999998 L 44.66149999999999 33.08499999999998 Z  M 27.766499999999994 36.73099999999998 C 27.523499999999995 36.77099999999998 27.276499999999995 36.83499999999998 27.026499999999995 36.88099999999998 C 26.474482723055036 36.96849562724639 26.15769646558821 36.993445463032025 25.59878810204999 36.993445463032025 C 25.412847098976993 36.993445463032025 25.308187261638803 36.99071068941302 25.122500000000002 36.98099999999998 C 24.480499999999996 36.96499999999998 23.719499999999996 36.80899999999998 23.292499999999997 36.53099999999998 C 23.185499999999998 37.18099999999998 23.979499999999998 38.02899999999998 24.657499999999995 38.48499999999998 C 25.123499999999996 38.802999999999976 25.611499999999996 39.07299999999998 26.127499999999994 39.244999999999976 C 26.327499999999993 39.314999999999976 26.537499999999994 39.34999999999997 26.737499999999994 39.424999999999976 C 27.354499999999994 39.644999999999975 27.970499999999994 40.04299999999998 28.447499999999994 40.46999999999998 C 29.077499999999993 41.019999999999975 29.591499999999993 41.72299999999998 30.072499999999994 42.342999999999975 C 30.517282465850812 40.27033806799495 31.004560451766984 39.10403564898261 32.16649999999999 37.33099999999999 C 31.511499999999995 37.10099999999997 30.803499999999996 36.848999999999975 30.036499999999997 36.73099999999997 C 29.16028033250226 36.60041652653933 28.642719667497744 36.60041652653933 27.766500000000004 36.73099999999998 L 27.766499999999994 36.73099999999998 Z  M 72.9845 45.488999999999976 L 59.37049999999999 43.04899999999998 C 59.50849999999999 43.842999999999975 59.595499999999994 44.65899999999998 59.595499999999994 45.488999999999976 C 59.595499999999994 46.315999999999974 59.50749999999999 47.122999999999976 59.369499999999995 47.921999999999976 L 72.98349999999999 45.488999999999976 L 72.9845 45.488999999999976 Z  M 29.944499999999998 43.04899999999998 L 16.342499999999998 45.488999999999976 L 29.948499999999996 47.921999999999976 C 29.823499999999996 47.12199999999998 29.731499999999997 46.315999999999974 29.731499999999997 45.488999999999976 C 29.731499999999997 44.65899999999998 29.823499999999996 43.842999999999975 29.945499999999996 43.04899999999998 L 29.944499999999998 43.04899999999998 Z  M 62.802499999999995 39.73199999999998 C 62.95249999999999 39.52199999999998 63.0725 39.30199999999998 63.2285 39.101999999999975 C 63.6025 38.55199999999998 64.0315 38.10699999999998 64.4855 37.681999999999974 C 64.9555 37.244999999999976 65.60549999999999 36.80799999999998 66.11349999999999 36.70199999999997 C 65.72749999999999 36.17799999999997 64.5585 36.129999999999974 63.7555 36.29199999999997 C 63.2035 36.39599999999997 62.6855 36.54199999999997 62.180499999999995 36.78799999999997 C 61.9845 36.88199999999998 61.81849999999999 37.00299999999997 61.62049999999999 37.09499999999997 C 61.03049999999999 37.37199999999997 60.317499999999995 37.52699999999997 59.668499999999995 37.56199999999997 C 58.842499999999994 37.61999999999997 57.9755 37.48599999999997 57.198499999999996 37.38499999999997 L 57.1885 37.38499999999997 C 58.168499999999995 38.89199999999997 58.881499999999996 40.58499999999997 59.2665 42.40699999999997 C 59.8965 42.10999999999997 60.5665 41.788999999999966 61.1965 41.33099999999997 C 61.907648157318754 40.80469196214754 62.273533843535226 40.44017322120958 62.8025 39.730999999999966 L 62.802499999999995 39.73199999999998 Z  M 36.1695 33.217999999999975 L 27.613499999999995 28.43099999999998 L 32.38549999999999 36.99099999999998 C 33.57847843642298 35.28085440491311 34.45520270280619 34.40644767558087 36.168499999999995 33.217999999999975 L 36.1695 33.217999999999975 Z  M 56.9375 36.99099999999998 L 61.713499999999996 28.430999999999976 L 53.1585 33.217999999999975 C 54.871409556584425 34.405552401671336 55.74777464655545 35.280294593327596 56.93849999999999 36.99099999999997 L 56.9375 36.99099999999998 Z  M 47.1745 30.78299999999998 L 44.66049999999999 5.839999999999979 L 42.150499999999994 30.78199999999998 C 43.11960869162248 30.6144406094699 43.67704080877673 30.564471594983956 44.66049999999997 30.55699999999998 C 45.51549999999999 30.556999999999977 46.35049999999999 30.646999999999977 47.17349999999999 30.78199999999998 L 47.1745 30.78299999999998 Z  M 35.9645 27.96699999999998 C 36.0595 28.156999999999982 36.1815 28.333999999999982 36.2685 28.52699999999998 C 36.552499999999995 29.12299999999998 36.7145 29.82899999999998 36.7465 30.46899999999998 C 36.792500000000004 31.30899999999998 36.6665 32.17599999999998 36.5645 32.94399999999998 L 36.5645 32.963999999999984 C 38.0685 31.98199999999998 39.770500000000006 31.26199999999998 41.5895 30.87899999999998 C 41.289500000000004 30.24699999999998 40.9745 29.57299999999998 40.5115 28.94899999999998 C 39.9885819603759 28.239807033303137 39.622978920603884 27.875803506830124 38.911500000000004 27.355999999999984 C 38.704499999999996 27.19999999999998 38.4875 27.07599999999998 38.278499999999994 26.93099999999998 C 37.7305 26.54499999999998 37.284499999999994 26.11299999999998 36.8565 25.66699999999998 C 36.4195 25.18699999999998 35.98949999999999 24.54399999999998 35.8835 24.03699999999998 C 35.3565 24.42399999999998 35.3135 25.586999999999982 35.4705 26.39399999999998 C 35.5805 26.95099999999998 35.7225 27.470999999999982 35.966499999999996 27.967999999999982 L 35.9645 27.96699999999998 Z  M 53.4225 30.860999999999983 C 53.55280272610915 29.983554893440093 53.55280272610915 29.465445106559876 53.42250000000001 28.587999999999987 C 53.3875 28.342999999999982 53.3075 28.101999999999983 53.268499999999996 27.847999999999985 C 53.1585 27.191999999999986 53.13849999999999 26.581999999999987 53.1585 25.947999999999986 C 53.186499999999995 25.307999999999986 53.332499999999996 24.537999999999986 53.6205 24.109999999999985 C 52.9785 24.009999999999984 52.1235 24.803999999999984 51.6635 25.482999999999986 C 51.3455 25.954999999999988 51.0815 26.432999999999986 50.9035 26.957999999999988 C 50.8335 27.149999999999988 50.7935 27.364999999999988 50.7235 27.55799999999999 C 50.5035 28.17799999999999 50.103500000000004 28.79299999999999 49.6835 29.277999999999988 C 49.1235 29.893999999999988 48.4315 30.41799999999999 47.801500000000004 30.887999999999987 L 47.79750000000001 30.89199999999999 C 49.87262300819532 31.341889627777583 51.039360275044295 31.829502134918847 52.817499999999995 32.98999999999998 C 53.04750000000001 32.33399999999999 53.29250000000001 31.623999999999988 53.42250000000001 30.861999999999988 M 462.3165 56.02199999999998 L 462.3165 168.05499999999998" fill-rule="evenodd" fill="rgb(255,255,255)" stroke-width="1" stroke="rgba(0,0,0,0)" stroke-linejoin="miter" stroke-linecap="butt"/><line x1="462.3165" y1="56.02199999999998" x2="462.3165" y2="168.05499999999998" stroke-width="1.249375" stroke="rgb(255,255,255)" stroke-linejoin="miter" stroke-linecap="butt"/><path d=" M 544.288 58.62 Q 543.188 58.268 541.956 57.982 Q 540.724 57.696 539.25 57.498 Q 537.776 57.3 536.148 57.3 Q 533.508 57.3 531.66 58.444 Q 529.812 59.587999999999994 528.646 61.37 Q 527.48 63.152 526.952 65.352 Q 526.424 67.55199999999999 526.424 69.708 Q 526.424 72.43599999999999 527.194 74.658 Q 527.964 76.88 529.306 78.442 Q 530.648 80.00399999999999 532.43 80.84 Q 534.212 81.67599999999999 536.192 81.67599999999999 Q 538.04 81.67599999999999 539.58 81.478 Q 541.12 81.28 542.22 81.06 Q 543.496 80.79599999999999 544.508 80.44399999999999 L 545.256 83.568 Q 544.068 83.964 542.616 84.27199999999999 Q 541.384 84.536 539.756 84.756 Q 538.128 84.976 536.192 84.976 Q 532.716 84.976 530.098 83.832 Q 527.48 82.68799999999999 525.742 80.642 Q 524.004 78.596 523.124 75.80199999999999 Q 522.244 73.008 522.244 69.664 Q 522.244 65.836 523.3 62.91 Q 524.356 59.983999999999995 526.204 58.004 Q 528.052 56.024 530.604 55.012 Q 533.156 54 536.192 54 Q 538.04 54 539.646 54.19799999999999 Q 541.252 54.396 542.594 54.70399999999999 Q 543.936 55.012 545.08 55.364 L 544.288 58.62 Z  M 549.876 51.448 L 553.396 51.052 L 553.396 84.404 L 549.876 84.404 L 549.876 51.448 Z  M 572.052 74.24 Q 571.172 74.28399999999999 570.38 74.328 Q 569.588 74.372 568.818 74.43799999999999 Q 568.048 74.50399999999999 567.432 74.592 Q 564.264 74.988 562.944 75.978 Q 561.624 76.96799999999999 561.624 78.816 Q 561.624 80.356 562.57 81.126 Q 563.516 81.89599999999999 565.056 81.89599999999999 Q 567.168 81.89599999999999 568.818 81.16999999999999 Q 570.468 80.44399999999999 572.052 79.256 L 572.052 74.24 Z  M 572.008 82.336 Q 569.94 83.524 568.158 84.25 Q 566.376 84.976 564.308 84.976 Q 561.36 84.976 559.622 83.54599999999999 Q 557.884 82.116 557.884 78.816 Q 557.884 77.1 558.764 75.824 Q 559.644 74.548 561.074 73.69 Q 562.504 72.832 564.308 72.348 Q 566.112 71.864 568.004 71.732 Q 568.796 71.644 570.072 71.578 Q 571.348 71.512 572.052 71.46799999999999 Q 572.052 69.928 571.9639999999999 68.71799999999999 Q 571.876 67.508 571.436 66.65 Q 570.996 65.792 570.138 65.352 Q 569.28 64.912 567.696 64.912 Q 566.42 64.912 565.232 65.066 Q 564.044 65.22 563.12 65.396 Q 562.02 65.616 561.096 65.88 L 560.392 62.843999999999994 Q 561.492 62.58 562.768 62.36 Q 563.868 62.14 565.32 61.986 Q 566.772 61.831999999999994 568.444 61.831999999999994 Q 570.688 61.831999999999994 572.074 62.492 Q 573.46 63.152 574.23 64.274 Q 575 65.396 575.2860000000001 66.826 Q 575.572 68.256 575.572 69.84 L 575.572 80.4 Q 575.572 81.01599999999999 575.594 81.698 Q 575.616 82.38 575.682 83.03999999999999 Q 575.748 83.69999999999999 575.836 84.404 L 572.448 84.756 L 572.008 82.336 Z  M 593.744 65.88 Q 591.896 65.30799999999999 590.466 65.11 Q 589.0360000000001 64.912 587.848 64.912 Q 586.308 64.912 585.274 65.66 Q 584.24 66.408 584.24 67.596 Q 584.284 68.652 585.164 69.4 Q 586.044 70.148 587.21 70.74199999999999 Q 588.376 71.336 589.806 72.03999999999999 Q 591.236 72.744 592.49 73.624 Q 593.744 74.50399999999999 594.5360000000001 75.73599999999999 Q 595.328 76.96799999999999 595.372 78.684 Q 595.328 80.532 594.558 81.74199999999999 Q 593.788 82.952 592.578 83.678 Q 591.368 84.404 589.96 84.69 Q 588.552 84.976 587.32 84.976 Q 585.736 84.976 584.042 84.8 Q 582.348 84.624 580.412 84.05199999999999 L 581.072 80.884 Q 583.052 81.412 584.6800000000001 81.654 Q 586.308 81.89599999999999 587.364 81.89599999999999 Q 588.156 81.89599999999999 588.926 81.72 Q 589.696 81.544 590.312 81.214 Q 590.928 80.884 591.302 80.356 Q 591.676 79.828 591.676 79.168 Q 591.6320000000001 77.93599999999999 590.84 77.078 Q 590.048 76.22 588.794 75.538 Q 587.54 74.856 586.11 74.174 Q 584.6800000000001 73.49199999999999 583.426 72.59 Q 582.172 71.68799999999999 581.336 70.434 Q 580.5 69.18 580.5 67.332 Q 580.5 66.012 581.182 64.978 Q 581.864 63.944 582.942 63.262 Q 584.02 62.58 585.318 62.205999999999996 Q 586.616 61.831999999999994 587.848 61.831999999999994 Q 589.124 61.831999999999994 590.708 62.03 Q 592.292 62.227999999999994 594.36 62.756 L 593.744 65.88 Z  M 612.092 65.88 Q 610.244 65.30799999999999 608.814 65.11 Q 607.384 64.912 606.196 64.912 Q 604.656 64.912 603.622 65.66 Q 602.588 66.408 602.588 67.596 Q 602.6320000000001 68.652 603.512 69.4 Q 604.392 70.148 605.558 70.74199999999999 Q 606.724 71.336 608.154 72.03999999999999 Q 609.5840000000001 72.744 610.838 73.624 Q 612.092 74.50399999999999 612.884 75.73599999999999 Q 613.676 76.96799999999999 613.72 78.684 Q 613.676 80.532 612.906 81.74199999999999 Q 612.136 82.952 610.926 83.678 Q 609.716 84.404 608.308 84.69 Q 606.9 84.976 605.668 84.976 Q 604.0840000000001 84.976 602.39 84.8 Q 600.696 84.624 598.76 84.05199999999999 L 599.42 80.884 Q 601.4 81.412 603.028 81.654 Q 604.656 81.89599999999999 605.712 81.89599999999999 Q 606.504 81.89599999999999 607.274 81.72 Q 608.044 81.544 608.66 81.214 Q 609.276 80.884 609.65 80.356 Q 610.024 79.828 610.024 79.168 Q 609.98 77.93599999999999 609.188 77.078 Q 608.396 76.22 607.142 75.538 Q 605.888 74.856 604.458 74.174 Q 603.028 73.49199999999999 601.774 72.59 Q 600.52 71.68799999999999 599.684 70.434 Q 598.848 69.18 598.848 67.332 Q 598.848 66.012 599.53 64.978 Q 600.212 63.944 601.29 63.262 Q 602.368 62.58 603.6659999999999 62.205999999999996 Q 604.9639999999999 61.831999999999994 606.196 61.831999999999994 Q 607.472 61.831999999999994 609.056 62.03 Q 610.64 62.227999999999994 612.708 62.756 L 612.092 65.88 Z  M 618.516 65.836 Q 618.516 64.824 618.296 62.668 L 621.552 62.227999999999994 L 621.904 65.44 L 621.948 65.44 Q 622.74 64.428 623.488 63.67999999999999 Q 624.236 62.932 625.05 62.382 Q 625.864 61.831999999999994 626.612 61.831999999999994 Q 627.624 61.788 629.428 62.05199999999999 L 628.636 65.44 Q 627.184 65.176 626.612 65.22 Q 625.864 65.22 625.028 65.92399999999999 Q 624.192 66.628 623.576 67.42 Q 622.784 68.388 622.0360000000001 69.62 L 622.0360000000001 84.404 L 618.516 84.404 L 618.516 65.836 Z  M 635.808 73.448 Q 635.808 77.716 637.722 79.806 Q 639.636 81.89599999999999 642.892 81.89599999999999 Q 646.104 81.89599999999999 647.908 79.828 Q 649.712 77.75999999999999 649.712 73.624 Q 649.712 69.22399999999999 647.798 67.068 Q 645.884 64.912 642.5840000000001 64.912 Q 639.284 64.912 637.546 67.04599999999999 Q 635.808 69.18 635.808 73.448 Z  M 632.068 73.404 Q 632.068 70.06 633.124 67.838 Q 634.1800000000001 65.616 635.808 64.274 Q 637.436 62.932 639.306 62.382 Q 641.176 61.831999999999994 642.848 61.831999999999994 Q 644.432 61.831999999999994 646.302 62.337999999999994 Q 648.172 62.843999999999994 649.756 64.142 Q 651.34 65.44 652.396 67.618 Q 653.452 69.79599999999999 653.452 73.14 Q 653.452 76.616 652.374 78.904 Q 651.296 81.192 649.668 82.53399999999999 Q 648.04 83.876 646.148 84.42599999999999 Q 644.256 84.976 642.628 84.976 Q 640.956 84.976 639.108 84.448 Q 637.26 83.91999999999999 635.698 82.622 Q 634.136 81.324 633.102 79.08 Q 632.068 76.836 632.068 73.404 Z  M 661.064 73.448 Q 661.064 77.716 662.9780000000001 79.806 Q 664.892 81.89599999999999 668.148 81.89599999999999 Q 671.36 81.89599999999999 673.164 79.828 Q 674.9680000000001 77.75999999999999 674.9680000000001 73.624 Q 674.9680000000001 69.22399999999999 673.054 67.068 Q 671.14 64.912 667.84 64.912 Q 664.54 64.912 662.802 67.04599999999999 Q 661.064 69.18 661.064 73.448 Z  M 657.3240000000001 73.404 Q 657.3240000000001 70.06 658.38 67.838 Q 659.436 65.616 661.064 64.274 Q 662.692 62.932 664.562 62.382 Q 666.432 61.831999999999994 668.104 61.831999999999994 Q 669.688 61.831999999999994 671.558 62.337999999999994 Q 673.428 62.843999999999994 675.012 64.142 Q 676.596 65.44 677.652 67.618 Q 678.708 69.79599999999999 678.708 73.14 Q 678.708 76.616 677.63 78.904 Q 676.552 81.192 674.924 82.53399999999999 Q 673.296 83.876 671.404 84.42599999999999 Q 669.512 84.976 667.884 84.976 Q 666.212 84.976 664.364 84.448 Q 662.516 83.91999999999999 660.954 82.622 Q 659.392 81.324 658.358 79.08 Q 657.3240000000001 76.836 657.3240000000001 73.404 Z  M 683.856 66.276 Q 683.856 64.78 683.592 62.668 L 686.892 62.227999999999994 L 687.376 65 Q 688.564 64.12 689.708 63.459999999999994 Q 690.852 62.8 692.172 62.316 Q 693.492 61.831999999999994 694.856 61.831999999999994 Q 697.056 61.831999999999994 698.332 62.602 Q 699.608 63.372 700.2239999999999 65.22 Q 702.028 63.944 703.986 62.888 Q 705.944 61.831999999999994 708.056 61.831999999999994 Q 709.684 61.831999999999994 710.828 62.25 Q 711.972 62.668 712.6759999999999 63.635999999999996 Q 713.38 64.604 713.688 66.188 Q 713.996 67.77199999999999 713.996 70.148 L 713.996 84.404 L 710.476 84.404 L 710.476 70.544 Q 710.476 69.22399999999999 710.432 68.19 Q 710.388 67.156 710.124 66.42999999999999 Q 709.86 65.704 709.2660000000001 65.30799999999999 Q 708.672 64.912 707.572 64.912 Q 706.56 64.912 705.658 65.198 Q 704.756 65.484 703.788 66.012 Q 702.8199999999999 66.53999999999999 700.796 68.16799999999999 L 700.796 84.404 L 697.2760000000001 84.404 L 697.2760000000001 70.544 Q 697.2760000000001 69.22399999999999 697.232 68.19 Q 697.188 67.156 696.924 66.42999999999999 Q 696.66 65.704 696.066 65.30799999999999 Q 695.472 64.912 694.3720000000001 64.912 Q 693.2280000000001 64.912 691.996 65.396 Q 690.764 65.88 689.664 66.53999999999999 Q 688.564 67.19999999999999 687.376 68.08 L 687.376 84.404 L 683.856 84.404 L 683.856 66.276 Z  M 525.676 126.37999999999998 Q 525.676 130.64799999999997 527.59 132.738 Q 529.504 134.82799999999997 532.76 134.82799999999997 Q 535.972 134.82799999999997 537.776 132.76 Q 539.58 130.69199999999998 539.58 126.55599999999998 Q 539.58 122.15599999999998 537.666 119.99999999999999 Q 535.752 117.844 532.452 117.844 Q 529.152 117.844 527.414 119.97799999999998 Q 525.676 122.11199999999998 525.676 126.37999999999998 Z  M 521.936 126.33599999999998 Q 521.936 122.99199999999999 522.992 120.76999999999998 Q 524.048 118.54799999999999 525.676 117.20599999999999 Q 527.304 115.86399999999999 529.174 115.314 Q 531.044 114.76399999999998 532.716 114.76399999999998 Q 534.3 114.76399999999998 536.17 115.26999999999998 Q 538.04 115.77599999999998 539.624 117.07399999999998 Q 541.208 118.37199999999999 542.264 120.54999999999998 Q 543.32 122.72799999999998 543.32 126.07199999999999 Q 543.32 129.548 542.242 131.83599999999998 Q 541.164 134.12399999999997 539.536 135.46599999999998 Q 537.908 136.808 536.016 137.358 Q 534.124 137.908 532.496 137.908 Q 530.824 137.908 528.976 137.38 Q 527.128 136.85199999999998 525.566 135.55399999999997 Q 524.004 134.25599999999997 522.97 132.012 Q 521.936 129.76799999999997 521.936 126.33599999999998 Z  M 548.468 119.60399999999998 Q 548.512 118.67999999999998 548.248 115.6 L 551.504 115.15999999999998 L 551.988 117.97599999999998 Q 553.308 117.09599999999999 554.606 116.43599999999998 Q 555.904 115.77599999999998 557.268 115.26999999999998 Q 558.632 114.76399999999998 559.908 114.76399999999998 Q 561.712 114.76399999999998 562.922 115.18199999999999 Q 564.132 115.6 564.88 116.56799999999998 Q 565.628 117.53599999999999 565.958 119.11999999999999 Q 566.288 120.70399999999998 566.288 123.07999999999998 L 566.288 137.33599999999998 L 562.768 137.33599999999998 L 562.768 123.47599999999998 Q 562.768 122.15599999999998 562.724 121.12199999999999 Q 562.68 120.088 562.35 119.36199999999998 Q 562.02 118.63599999999998 561.338 118.23999999999998 Q 560.656 117.844 559.424 117.844 Q 558.28 117.844 557.004 118.34999999999998 Q 555.728 118.85599999999998 554.496 119.51599999999999 Q 553.264 120.17599999999999 551.988 121.05599999999998 L 551.988 137.33599999999998 L 548.468 137.33599999999998 L 548.468 119.60399999999998 Z  M 587.716 108.60399999999998 L 587.716 115.20399999999998 L 594.096 115.20399999999998 L 594.096 118.064 L 587.716 118.064 L 587.716 129.81199999999998 Q 587.716 131.26399999999998 587.782 132.23199999999997 Q 587.848 133.2 588.068 133.772 Q 588.288 134.344 588.684 134.58599999999998 Q 589.08 134.82799999999997 589.696 134.82799999999997 Q 591.3679999999999 134.784 593.568 133.596 L 594.624 136.27999999999997 Q 593.172 137.248 591.918 137.57799999999997 Q 590.664 137.908 589.432 137.908 Q 586.528 137.908 585.362 136.25799999999998 Q 584.196 134.608 584.196 130.77999999999997 L 584.196 118.064 L 580.148 118.064 L 580.148 115.20399999999998 L 584.196 115.20399999999998 L 584.196 109.04399999999998 L 587.716 108.60399999999998 Z  M 598.5840000000001 104.38 L 602.104 103.98399999999998 L 602.104 117.97599999999998 Q 603.424 117.09599999999999 604.722 116.43599999999998 Q 606.02 115.77599999999998 607.384 115.26999999999998 Q 608.748 114.76399999999998 610.024 114.76399999999998 Q 611.828 114.76399999999998 613.038 115.18199999999999 Q 614.248 115.6 614.996 116.56799999999998 Q 615.744 117.53599999999999 616.074 119.11999999999999 Q 616.404 120.70399999999998 616.404 123.07999999999998 L 616.404 137.33599999999998 L 612.884 137.33599999999998 L 612.884 123.47599999999998 Q 612.884 122.15599999999998 612.84 121.12199999999999 Q 612.796 120.088 612.466 119.36199999999998 Q 612.136 118.63599999999998 611.454 118.23999999999998 Q 610.7719999999999 117.844 609.54 117.844 Q 608.396 117.844 607.076 118.34999999999998 Q 605.756 118.85599999999998 604.568 119.51599999999999 Q 603.38 120.17599999999999 602.104 121.05599999999998 L 602.104 137.33599999999998 L 598.5840000000001 137.33599999999998 L 598.5840000000001 104.38 Z  M 638.976 136.808 Q 637.9639999999999 137.11599999999999 636.886 137.33599999999998 Q 635.808 137.55599999999998 634.51 137.73199999999997 Q 633.212 137.908 631.804 137.908 Q 629.604 137.908 627.712 137.29199999999997 Q 625.8199999999999 136.676 624.412 135.31199999999998 Q 623.004 133.94799999999998 622.19 131.76999999999998 Q 621.376 129.59199999999998 621.376 126.42399999999998 Q 621.376 123.564 622.168 121.38599999999998 Q 622.96 119.20799999999998 624.346 117.73399999999998 Q 625.732 116.25999999999999 627.602 115.51199999999999 Q 629.472 114.76399999999998 631.672 114.76399999999998 Q 633.828 114.76399999999998 635.412 115.6 Q 636.996 116.43599999999998 638.03 117.86599999999999 Q 639.064 119.29599999999999 639.5699999999999 121.20999999999998 Q 640.076 123.12399999999998 640.076 125.23599999999999 L 639.4159999999999 127.17199999999998 L 625.204 127.17199999999998 Q 625.204 128.536 625.556 129.89999999999998 Q 625.908 131.26399999999998 626.766 132.36399999999998 Q 627.624 133.464 629.01 134.146 Q 630.396 134.82799999999997 632.4639999999999 134.82799999999997 Q 633.784 134.82799999999997 634.884 134.67399999999998 Q 635.984 134.51999999999998 636.798 134.322 Q 637.612 134.12399999999997 638.316 133.85999999999999 L 638.976 136.808 Z  M 636.424 124.35599999999998 Q 636.424 124.04799999999999 636.292 122.99199999999999 Q 636.16 121.93599999999998 635.676 120.79199999999999 Q 635.192 119.64799999999998 634.18 118.74599999999998 Q 633.168 117.844 631.496 117.844 Q 629.648 117.844 628.46 118.61399999999999 Q 627.2719999999999 119.38399999999999 626.568 120.43999999999998 Q 625.864 121.49599999999998 625.6 122.59599999999999 Q 625.336 123.69599999999998 625.336 124.35599999999998 L 636.424 124.35599999999998 Z  M 655.652 107.32799999999999 L 663.044 107.32799999999999 Q 665.4639999999999 107.32799999999999 667.466 107.74599999999998 Q 669.468 108.16399999999999 670.876 109.15399999999998 Q 672.284 110.14399999999998 673.0319999999999 111.77199999999999 Q 673.78 113.39999999999998 673.78 115.86399999999999 Q 673.736 118.59199999999998 672.856 120.28599999999999 Q 671.976 121.97999999999999 670.6999999999999 123.01399999999998 Q 669.424 124.04799999999999 667.752 124.53199999999998 L 667.752 124.61999999999999 Q 667.928 124.79599999999999 668.3019999999999 125.25799999999998 Q 668.6759999999999 125.71999999999998 668.9399999999999 126.07199999999999 L 677.432 137.33599999999998 L 673.076 137.33599999999998 L 664.364 125.41199999999998 L 659.348 125.41199999999998 L 659.348 137.33599999999998 L 655.652 137.33599999999998 L 655.652 107.32799999999999 Z  M 670.04 116.47999999999999 Q 670.04 114.63199999999999 669.578 113.46599999999998 Q 669.116 112.29999999999998 668.2139999999999 111.68399999999998 Q 667.312 111.06799999999998 665.992 110.84799999999998 Q 664.672 110.62799999999999 663 110.62799999999999 L 659.348 110.62799999999999 L 659.348 122.11199999999998 L 663.704 122.11199999999998 Q 665.42 122.11199999999998 666.608 121.67199999999998 Q 667.7959999999999 121.23199999999999 668.544 120.46199999999999 Q 669.2919999999999 119.69199999999998 669.644 118.67999999999998 Q 669.996 117.66799999999998 670.04 116.47999999999999 Z  M 696.7919999999999 136.808 Q 695.78 137.11599999999999 694.702 137.33599999999998 Q 693.624 137.55599999999998 692.326 137.73199999999997 Q 691.028 137.908 689.62 137.908 Q 687.42 137.908 685.528 137.29199999999997 Q 683.636 136.676 682.228 135.31199999999998 Q 680.8199999999999 133.94799999999998 680.006 131.76999999999998 Q 679.192 129.59199999999998 679.192 126.42399999999998 Q 679.192 123.564 679.9839999999999 121.38599999999998 Q 680.776 119.20799999999998 682.162 117.73399999999998 Q 683.548 116.25999999999999 685.418 115.51199999999999 Q 687.288 114.76399999999998 689.4879999999999 114.76399999999998 Q 691.644 114.76399999999998 693.228 115.6 Q 694.8119999999999 116.43599999999998 695.846 117.86599999999999 Q 696.88 119.29599999999999 697.386 121.20999999999998 Q 697.8919999999999 123.12399999999998 697.8919999999999 125.23599999999999 L 697.232 127.17199999999998 L 683.02 127.17199999999998 Q 683.02 128.536 683.372 129.89999999999998 Q 683.7239999999999 131.26399999999998 684.582 132.36399999999998 Q 685.4399999999999 133.464 686.826 134.146 Q 688.212 134.82799999999997 690.28 134.82799999999997 Q 691.5999999999999 134.82799999999997 692.6999999999999 134.67399999999998 Q 693.8 134.51999999999998 694.614 134.322 Q 695.428 134.12399999999997 696.132 133.85999999999999 L 696.7919999999999 136.808 Z  M 694.24 124.35599999999998 Q 694.24 124.04799999999999 694.108 122.99199999999999 Q 693.976 121.93599999999998 693.492 120.79199999999999 Q 693.008 119.64799999999998 691.996 118.74599999999998 Q 690.9839999999999 117.844 689.312 117.844 Q 687.4639999999999 117.844 686.276 118.61399999999999 Q 685.088 119.38399999999999 684.384 120.43999999999998 Q 683.68 121.49599999999998 683.4159999999999 122.59599999999999 Q 683.1519999999999 123.69599999999998 683.1519999999999 124.35599999999998 L 694.24 124.35599999999998 Z  M 719.056 136.808 Q 718.044 137.11599999999999 716.966 137.33599999999998 Q 715.8879999999999 137.55599999999998 714.5899999999999 137.73199999999997 Q 713.2919999999999 137.908 711.884 137.908 Q 709.684 137.908 707.7919999999999 137.29199999999997 Q 705.9 136.676 704.492 135.31199999999998 Q 703.084 133.94799999999998 702.27 131.76999999999998 Q 701.456 129.59199999999998 701.456 126.42399999999998 Q 701.456 123.564 702.248 121.38599999999998 Q 703.04 119.20799999999998 704.4259999999999 117.73399999999998 Q 705.812 116.25999999999999 707.682 115.51199999999999 Q 709.552 114.76399999999998 711.752 114.76399999999998 Q 713.908 114.76399999999998 715.492 115.6 Q 717.076 116.43599999999998 718.11 117.86599999999999 Q 719.144 119.29599999999999 719.65 121.20999999999998 Q 720.156 123.12399999999998 720.156 125.23599999999999 L 719.496 127.17199999999998 L 705.284 127.17199999999998 Q 705.284 128.536 705.636 129.89999999999998 Q 705.9879999999999 131.26399999999998 706.846 132.36399999999998 Q 707.704 133.464 709.0899999999999 134.146 Q 710.476 134.82799999999997 712.544 134.82799999999997 Q 713.864 134.82799999999997 714.9639999999999 134.67399999999998 Q 716.064 134.51999999999998 716.8779999999999 134.322 Q 717.692 134.12399999999997 718.396 133.85999999999999 L 719.056 136.808 Z  M 716.504 124.35599999999998 Q 716.504 124.04799999999999 716.372 122.99199999999999 Q 716.24 121.93599999999998 715.756 120.79199999999999 Q 715.2719999999999 119.64799999999998 714.26 118.74599999999998 Q 713.248 117.844 711.576 117.844 Q 709.728 117.844 708.54 118.61399999999999 Q 707.352 119.38399999999999 706.6479999999999 120.43999999999998 Q 705.944 121.49599999999998 705.68 122.59599999999999 Q 705.4159999999999 123.69599999999998 705.4159999999999 124.35599999999998 L 716.504 124.35599999999998 Z  M 726.844 118.064 L 722.752 118.064 L 722.752 115.20399999999998 L 726.844 115.20399999999998 Q 726.844 112.12399999999998 727.262 109.98999999999998 Q 727.68 107.856 728.604 106.51399999999998 Q 729.528 105.17199999999998 730.98 104.57799999999999 Q 732.432 103.98399999999998 734.5 103.98399999999998 Q 736.172 103.98399999999998 737.624 104.53399999999999 Q 739.076 105.08399999999999 739.956 105.87599999999999 L 738.4159999999999 108.51599999999999 Q 737.5360000000001 107.856 736.59 107.45999999999998 Q 735.644 107.064 734.544 107.064 Q 733.092 107.064 732.256 107.70199999999998 Q 731.42 108.33999999999999 731.002 109.43999999999998 Q 730.5840000000001 110.53999999999999 730.4739999999999 112.01399999999998 Q 730.364 113.48799999999999 730.364 115.20399999999998 L 735.864 115.20399999999998 L 735.864 118.064 L 730.364 118.064 L 730.364 137.33599999999998 L 726.844 137.33599999999998 L 726.844 118.064 Z " fill-rule="evenodd" fill="rgb(255,255,255)" stroke-width="1" stroke="rgba(0,0,0,0)" stroke-linejoin="miter" stroke-linecap="square"/></svg>